# Blender 4.0.2
# www.blender.org
mtllib rock.mtl
o Cube
v 0.657343 0.716155 -0.742084
v 0.657343 -0.742084 -0.742084
v 0.657343 0.716155 0.716155
v 0.657343 -0.742084 0.716155
v -0.500000 0.500000 -0.500000
v -0.800896 -0.742084 -0.742084
v -0.500000 0.500000 0.500000
v -0.500000 -0.500000 0.500000
v -0.960672 -0.842504 -0.012965
v 0.000000 -0.760176 -0.609568
v 0.817119 -0.012965 -0.901860
v -0.609568 -0.000000 0.609568
v 0.817119 -0.012965 0.875931
v -0.609568 -0.000000 -0.609568
v -0.000000 0.609568 0.609568
v 0.817119 0.875931 -0.012965
v -0.000000 -0.755623 0.609568
v -0.609568 0.609568 -0.000000
v 0.000000 0.609568 -0.609568
v 1.030224 -0.609568 -0.397743
v -0.071777 1.000714 -0.012965
v -0.071777 -0.012965 1.211236
v -1.295978 -0.012965 -0.012965
v 0.000000 -0.839506 0.000000
v 1.070883 0.000000 -0.000000
v 0.000000 0.000000 -0.839506
vn 0.1349 0.9613 -0.2402
vn -0.2919 0.7834 -0.5487
vn -0.2909 0.7947 0.5328
vn 0.1349 0.9613 0.2402
vn -0.1113 -0.6321 0.7669
vn 0.3397 0.2717 0.9004
vn -0.7091 0.2957 0.6402
vn -0.4483 -0.5885 0.6729
vn -0.6290 -0.2542 0.7346
vn -0.6448 0.2957 0.7048
vn -0.6299 0.2954 -0.7183
vn -0.8984 -0.3631 -0.2469
vn 0.0049 -0.9908 -0.1354
vn 0.0013 -0.9916 -0.1291
vn -0.0017 -0.9907 0.1363
vn -0.0049 -0.8296 0.5584
vn 0.5183 0.4428 -0.7316
vn 0.9282 0.2614 -0.2649
vn 0.9258 0.2625 0.2721
vn 0.9277 -0.2455 0.2813
vn 0.1501 -0.2862 -0.9463
vn -0.3397 0.2717 -0.9004
vn -0.0714 0.1985 -0.9775
vn -0.1819 -0.2847 -0.9412
vn -0.2408 0.7982 -0.5523
vn -0.5670 0.7699 -0.2930
vn -0.5579 0.7767 0.2924
vn -0.2192 0.8146 0.5371
vn 0.3397 -0.2717 0.9004
vn -0.2235 0.6906 0.6879
vn -0.2960 0.6812 0.6695
vn -0.7154 -0.2955 0.6331
vn -0.6387 -0.2956 0.7104
vn -0.6448 0.7048 0.2957
vn -0.6387 0.7104 -0.2956
vn -0.6307 0.2911 -0.7193
vn -0.0010 -0.9916 -0.1291
vn 0.2524 -0.9627 0.0972
vn 0.1992 -0.9787 -0.0497
vn -0.4727 -0.8730 0.1201
vn 0.9304 -0.2604 -0.2580
vn 0.9281 0.2650 -0.2615
vn 0.9258 0.2721 0.2625
vn 0.9281 -0.2615 0.2650
vn -0.3417 0.2499 -0.9060
vn -0.2717 0.3397 -0.9004
vn -0.2387 0.3427 -0.9086
vn -0.0777 -0.1971 -0.9773
vt 0.625000 0.500000
vt 0.750000 0.625000
vt 0.625000 0.625000
vt 0.875000 0.500000
vt 0.750000 0.500000
vt 0.875000 0.750000
vt 0.750000 0.750000
vt 0.625000 0.750000
vt 0.375000 0.750000
vt 0.500000 0.875000
vt 0.375000 0.875000
vt 0.500000 0.750000
vt 0.625000 1.000000
vt 0.500000 1.000000
vt 0.375000 1.000000
vt 0.375000 0.000000
vt 0.500000 0.125000
vt 0.375000 0.125000
vt 0.625000 0.000000
vt 0.500000 0.000000
vt 0.625000 0.250000
vt 0.500000 0.250000
vt 0.375000 0.250000
vt 0.125000 0.500000
vt 0.250000 0.625000
vt 0.125000 0.625000
vt 0.375000 0.500000
vt 0.250000 0.500000
vt 0.250000 0.750000
vt 0.125000 0.750000
vt 0.500000 0.625000
vt 0.375000 0.625000
vt 0.500000 0.500000
vt 0.500000 0.375000
vt 0.375000 0.375000
vt 0.875000 0.625000
vt 0.625000 0.875000
vt 0.625000 0.125000
vt 0.625000 0.375000
s 0
usemtl Material
f 1/1/1 21/2/1 16/3/1
f 5/4/2 21/2/2 19/5/2
f 21/2/3 7/6/3 15/7/3
f 21/2/4 3/8/4 16/3/4
f 4/9/5 22/10/5 17/11/5
f 3/8/6 22/10/6 13/12/6
f 22/10/7 7/13/7 12/14/7
f 22/10/8 8/15/8 17/11/8
f 8/16/9 23/17/9 9/18/9
f 7/19/10 23/17/10 12/20/10
f 23/17/11 5/21/11 14/22/11
f 23/17/12 6/23/12 9/18/12
f 6/24/13 24/25/13 9/26/13
f 2/27/14 24/25/14 10/28/14
f 24/25/15 4/9/15 17/29/15
f 24/25/16 8/30/16 9/26/16
f 2/27/17 25/31/17 20/32/17
f 1/1/18 25/31/18 11/33/18
f 25/31/19 3/8/19 13/12/19
f 25/31/20 4/9/20 20/32/20
f 6/23/21 26/34/21 10/35/21
f 5/21/22 26/34/22 14/22/22
f 26/34/23 1/1/23 11/33/23
f 26/34/24 2/27/24 10/35/24
f 1/1/25 19/5/25 21/2/25
f 5/4/26 18/36/26 21/2/26
f 21/2/27 18/36/27 7/6/27
f 21/2/28 15/7/28 3/8/28
f 4/9/29 13/12/29 22/10/29
f 3/8/30 15/37/30 22/10/30
f 22/10/31 15/37/31 7/13/31
f 22/10/32 12/14/32 8/15/32
f 8/16/33 12/20/33 23/17/33
f 7/19/34 18/38/34 23/17/34
f 23/17/35 18/38/35 5/21/35
f 23/17/36 14/22/36 6/23/36
f 6/24/37 10/28/37 24/25/37
f 2/27/38 20/32/38 24/25/38
f 24/25/39 20/32/39 4/9/39
f 24/25/40 17/29/40 8/30/40
f 2/27/41 11/33/41 25/31/41
f 1/1/42 16/3/42 25/31/42
f 25/31/43 16/3/43 3/8/43
f 25/31/44 13/12/44 4/9/44
f 6/23/45 14/22/45 26/34/45
f 5/21/46 19/39/46 26/34/46
f 26/34/47 19/39/47 1/1/47
f 26/34/48 11/33/48 2/27/48
